Coordinates
version=1
nRows=24
nColumns=38
inDegrees=no

Units are S.I. units (second, meters, Newtons, ...)
If the header above contains a line with 'inDegrees', this indicates whether rotational values are in degrees (yes) or radians (no).

endheader
time	pelvis_tilt	pelvis_list	pelvis_rotation	pelvis_tx	pelvis_ty	pelvis_tz	hip_flexion_r	hip_adduction_r	hip_rotation_r	knee_angle_r	ankle_angle_r	subtalar_angle_r	mtp_angle_r	hip_flexion_l	hip_adduction_l	hip_rotation_l	knee_angle_l	ankle_angle_l	subtalar_angle_l	mtp_angle_l	lumbar_extension	lumbar_bending	lumbar_rotation	arm_flex_r	arm_add_r	arm_rot_r	elbow_flex_r	pro_sup_r	wrist_flex_r	wrist_dev_r	arm_flex_l	arm_add_l	arm_rot_l	elbow_flex_l	pro_sup_l	wrist_flex_l	wrist_dev_l
1.875	0.0259209	-0.00884048	-0.0526927	1.05782	0.953528	-0.312759	0.160502	0.115813	0.147232	-0.803269	0.532045	0.0220883	5.84335e-05	0.563839	0.0339344	0.00551449	-1.53531	0.0464714	-0.00697599	0.000132011	-0.29891	0.0332344	0.101948	-0.308276	-0.179587	-0.158434	1.36526	1.28862	0.0224468	-0.0319225	-0.662924	-0.168289	-0.0773584	1.71368	1.69888	0.0137847	-0.0298775
1.88333	0.0206285	-0.00159846	-0.0510061	1.05784	0.958265	-0.312878	0.131678	0.103224	0.148635	-0.770781	0.511255	0.0220883	5.84335e-05	0.581999	0.0394822	0.00543447	-1.49381	0.0514916	-0.00697599	0.000132011	-0.291883	0.0225462	0.111639	-0.306089	-0.176954	-0.163288	1.40821	1.29663	0.0224468	-0.0319225	-0.678355	-0.1689	-0.0868902	1.72224	1.69995	0.0137847	-0.0298775
1.89167	0.0155273	0.0066265	-0.0494395	1.05807	0.963551	-0.313094	0.102936	0.0890982	0.148742	-0.737365	0.484005	0.0220883	5.84335e-05	0.596471	0.0466899	0.00494268	-1.44579	0.0547975	-0.00697599	0.000132011	-0.28474	0.0109479	0.120731	-0.305477	-0.175295	-0.167156	1.45079	1.30811	0.0224468	-0.0319225	-0.694267	-0.170219	-0.0959777	1.73447	1.70006	0.0137847	-0.0298775
1.9	0.010764	0.0157505	-0.0480569	1.05849	0.969291	-0.313399	0.0746522	0.0735379	0.147281	-0.703862	0.450461	0.0220883	5.84335e-05	0.607037	0.055353	0.00411825	-1.39139	0.0557643	-0.00697599	0.000132011	-0.277791	-0.00144497	0.129107	-0.305945	-0.174719	-0.169769	1.49229	1.32305	0.0224468	-0.0319225	-0.710173	-0.171999	-0.104414	1.74904	1.69951	0.0137847	-0.0298775
1.90833	0.00640998	0.0255799	-0.0468672	1.05908	0.975376	-0.313774	0.0472046	0.0568182	0.144083	-0.671044	0.411066	0.0220883	5.84335e-05	0.613593	0.0651691	0.00320586	-1.33085	0.0538323	-0.00697599	0.000132011	-0.271243	-0.014431	0.136628	-0.307054	-0.175229	-0.170936	1.53217	1.34086	0.0224468	-0.0319225	-0.725707	-0.173979	-0.112115	1.7648	1.69843	0.0137847	-0.0298775
1.91667	0.00245587	0.0358042	-0.0458273	1.05979	0.981684	-0.314197	0.0209753	0.0393972	0.139115	-0.639629	0.366514	0.0220883	5.84335e-05	0.616158	0.0757401	0.00258292	-1.26446	0.0486194	-0.00697599	0.000132011	-0.265184	-0.0277075	0.143141	-0.308443	-0.176758	-0.170506	1.57004	1.36039	0.0224468	-0.0319225	-0.740636	-0.175891	-0.119113	1.78085	1.69677	0.0137847	-0.0298775
1.925	-0.00116895	0.0460064	-0.044856	1.06062	0.988085	-0.314643	-0.00366184	0.0218973	0.132496	-0.610295	0.317713	0.0220883	5.84335e-05	0.614876	0.0865787	0.00268986	-1.19268	0.0400351	-0.00697599	0.000132011	-0.259592	-0.0408691	0.14851	-0.309832	-0.179196	-0.168368	1.60563	1.38018	0.0224468	-0.0319225	-0.754854	-0.177472	-0.12554	1.79655	1.69437	0.0137847	-0.0298775
1.93333	-0.00457463	0.0556835	-0.0438554	1.06155	0.994438	-0.315087	-0.0263439	0.00506716	0.124497	-0.583706	0.265743	0.0220883	5.84335e-05	0.610021	0.0971121	0.00393243	-1.11622	0.0283603	-0.00697599	0.000132011	-0.254363	-0.0534195	0.152635	-0.311026	-0.182421	-0.164459	1.63874	1.39873	0.0224468	-0.0319225	-0.768352	-0.178477	-0.131576	1.81151	1.6911	0.0137847	-0.0298775
1.94167	-0.00789055	0.0642812	-0.0427346	1.06254	1.0006	-0.315507	-0.0467169	-0.010273	0.11551	-0.560537	0.211816	0.0220883	5.84335e-05	0.602009	0.106692	0.0065711	-1.03609	0.0142472	-0.00697599	0.000132011	-0.249347	-0.0648011	0.155479	-0.311914	-0.1863	-0.158786	1.66925	1.41472	0.0224468	-0.0319225	-0.781183	-0.178701	-0.137415	1.82553	1.68691	0.0137847	-0.0298775
1.95	-0.0112323	0.0712563	-0.041429	1.06358	1.00645	-0.315883	-0.0644612	-0.023315	0.106017	-0.541483	0.157237	0.0220883	5.84335e-05	0.591378	0.11464	0.0106178	-0.953605	-0.00138985	-0.00697599	0.000132011	-0.244401	-0.0744535	0.157066	-0.31246	-0.190698	-0.151448	1.69708	1.42719	0.0224468	-0.0319225	-0.793425	-0.177991	-0.143222	1.83859	1.6818	0.0137847	-0.0298775
1.95833	-0.0146861	0.0761472	-0.0399166	1.06465	1.01185	-0.316195	-0.0793156	-0.0333624	0.0965383	-0.52725	0.103348	0.0220883	5.84335e-05	0.578761	0.120328	0.015774	-0.870456	-0.0175833	-0.00697599	0.000132011	-0.239448	-0.0818962	0.157475	-0.312694	-0.195459	-0.142655	1.72216	1.43568	0.0224468	-0.0319225	-0.805155	-0.176267	-0.149104	1.85077	1.67576	0.0137847	-0.0298775
1.96667	-0.0182563	0.0786335	-0.0382224	1.06571	1.01672	-0.316429	-0.0910886	-0.0399344	0.0875895	-0.518534	0.0514688	0.0220883	5.84335e-05	0.564858	0.123292	0.0214411	-0.78858	-0.0335563	-0.00697599	0.000132011	-0.234494	-0.0868249	0.156819	-0.312697	-0.200405	-0.132721	1.74444	1.44021	0.0224468	-0.0319225	-0.816425	-0.173531	-0.155103	1.86224	1.66875	0.0137847	-0.0298775
1.975	-0.0218453	0.0786186	-0.0364125	1.06676	1.02097	-0.316568	-0.0996689	-0.0428416	0.0796347	-0.515979	0.00284539	0.0220883	5.84335e-05	0.550385	0.123337	0.0268236	-0.710085	-0.0489045	-0.00697599	0.000132011	-0.229639	-0.0891811	0.155225	-0.31258	-0.205315	-0.122056	1.76386	1.44128	0.0224468	-0.0319225	-0.827248	-0.169873	-0.161195	1.87322	1.66075	0.0137847	-0.0298775
1.98333	-0.0252747	0.076273	-0.0345785	1.06776	1.02456	-0.316602	-0.105032	-0.0422232	0.0730474	-0.520135	-0.0413936	0.0220883	5.84335e-05	0.536015	0.120618	0.0311083	-0.6371	-0.0636365	-0.00697599	0.000132011	-0.22507	-0.0891899	0.152813	-0.312475	-0.209933	-0.111131	1.78034	1.43973	0.0224468	-0.0319225	-0.83759	-0.165471	-0.167305	1.88392	1.65175	0.0137847	-0.0298775
1.99167	-0.0283103	0.0720259	-0.0328107	1.0687	1.02748	-0.316526	-0.107235	-0.0385325	0.0680771	-0.531416	-0.0802586	0.0220883	5.84335e-05	0.522315	0.115657	0.0336775	-0.5716	-0.078059	-0.00697599	0.000132011	-0.221046	-0.0873483	0.149674	-0.312522	-0.213976	-0.100443	1.79379	1.43662	0.0224468	-0.0319225	-0.84737	-0.160587	-0.173318	1.89455	1.64186	0.0137847	-0.0298775
2	-0.0306913	0.066506	-0.0311708	1.06955	1.02971	-0.316347	-0.106406	-0.0324699	0.0648261	-0.55005	-0.112913	0.0220883	5.84335e-05	0.509683	0.109292	0.0342927	-0.51522	-0.0925639	-0.00697599	0.000132011	-0.217853	-0.0843608	0.145865	-0.312879	-0.217157	-0.0904741	1.80411	1.43305	0.0224468	-0.0319225	-0.856459	-0.155552	-0.179092	1.90528	1.63126	0.0137847	-0.0298775
2.00833	-0.0321236	0.0604701	-0.0296805	1.07032	1.03128	-0.316083	-0.102758	-0.0248983	0.0632394	-0.576044	-0.138677	0.0220883	5.84335e-05	0.498272	0.102561	0.0331311	-0.469072	-0.107395	-0.00697599	0.000132011	-0.215796	-0.081052	0.141408	-0.313716	-0.219224	-0.0816447	1.81126	1.42999	0.0224468	-0.0319225	-0.864686	-0.150745	-0.184467	1.9162	1.62022	0.0137847	-0.0298775
2.01667	-0.0323431	0.0547226	-0.0283295	1.07098	1.03218	-0.315762	-0.0966051	-0.0167236	0.0631171	-0.609156	-0.157061	0.0220883	5.84335e-05	0.487941	0.0965411	0.0307276	-0.433642	-0.122481	-0.00697599	0.000132011	-0.21519	-0.078239	0.136303	-0.315226	-0.219992	-0.0742728	1.8152	1.42812	0.0224468	-0.0319225	-0.871855	-0.146567	-0.189276	1.92737	1.60897	0.0137847	-0.0298775
2.025	-0.031117	0.0499557	-0.0270887	1.07153	1.03246	-0.315413	-0.0883235	-0.00878873	0.0641524	-0.648896	-0.167821	0.0220883	5.84335e-05	0.478307	0.0921915	0.0278408	-0.408792	-0.137347	-0.00697599	0.000132011	-0.216304	-0.0766265	0.130564	-0.317624	-0.219376	-0.0685525	1.81602	1.42772	0.0224468	-0.0319225	-0.877757	-0.143398	-0.193356	1.93875	1.59774	0.0137847	-0.0298775
2.03333	-0.0283062	0.046678	-0.0259309	1.07199	1.03213	-0.315069	-0.0783081	-0.00176818	0.0659829	-0.69455	-0.171039	0.0220883	5.84335e-05	0.468842	0.0902141	0.0253069	-0.39387	-0.151098	-0.00697599	0.000132011	-0.219322	-0.0766927	0.124245	-0.321145	-0.217402	-0.0645503	1.81383	1.42867	0.0224468	-0.0319225	-0.882192	-0.141557	-0.196559	1.95024	1.58682	0.0137847	-0.0298775
2.04167	-0.0238915	0.0451442	-0.024847	1.07238	1.03121	-0.314761	-0.0668934	0.00389822	0.0682449	-0.745249	-0.167193	0.0220883	5.84335e-05	0.459026	0.0909825	0.0239347	-0.387911	-0.162421	-0.00697599	0.000132011	-0.224276	-0.0786227	0.117456	-0.326028	-0.214208	-0.0622217	1.80887	1.43055	0.0224468	-0.0319225	-0.884982	-0.141267	-0.198765	1.96165	1.57657	0.0137847	-0.0298775
2.05	-0.017999	0.0453325	-0.0238495	1.07271	1.0297	-0.314514	-0.0542915	0.00802812	0.0706064	-0.800034	-0.157184	0.0220883	5.84335e-05	0.448493	0.0945345	0.0244528	-0.389852	-0.169613	-0.00697599	0.000132011	-0.231015	-0.0822844	0.11036	-0.33249	-0.210025	-0.0614471	1.8014	1.43271	0.0224468	-0.0319225	-0.885988	-0.142621	-0.199879	1.97275	1.56743	0.0137847	-0.0298775
2.05833	-0.0108897	0.0469927	-0.0229811	1.073	1.02759	-0.31435	-0.0405591	0.0106377	0.0727702	-0.857949	-0.142264	0.0220883	5.84335e-05	0.43711	0.100627	0.0273824	-0.398699	-0.170659	-0.00697599	0.000132011	-0.239208	-0.0872885	0.103153	-0.340689	-0.205139	-0.0620691	1.79167	1.43445	0.0224468	-0.0319225	-0.885112	-0.145576	-0.199838	1.98326	1.55976	0.0137847	-0.0298775
2.06667	-0.00292648	0.0497178	-0.0223099	1.07327	1.02483	-0.314288	-0.0255971	0.0118659	0.0744701	-0.918113	-0.123902	0.0220883	5.84335e-05	0.424994	0.108821	0.0329529	-0.413616	-0.163423	-0.00697599	0.000132011	-0.248393	-0.093076	0.0960332	-0.350682	-0.199852	-0.0639243	1.77992	1.43514	0.0224468	-0.0319225	-0.882293	-0.149959	-0.198603	1.99284	1.55376	0.0137847	-0.0298775
